<?xml version="1.0" encoding="utf-8"?>
<!-- Generator: Adobe Illustrator 16.0.0, SVG Export Plug-In . SVG Version: 6.00 Build 0)  -->
<!DOCTYPE svg PUBLIC "-//W3C//DTD SVG 1.1//EN" "http://www.w3.org/Graphics/SVG/1.1/DTD/svg11.dtd">
<svg version="1.1" id="Layer_1" xmlns="http://www.w3.org/2000/svg" xmlns:xlink="http://www.w3.org/1999/xlink" x="0px" y="0px"
	 width="100px" height="100px" viewBox="0 0 100 100" enable-background="new 0 0 100 100" xml:space="preserve">
<path d="M77.372,52.986c-0.354-0.699-1.206-0.979-1.906-0.625c-0.698,0.352-0.979,1.205-0.626,1.904
	c1.99,3.941,2.999,8.195,2.999,12.643c0,1.273-0.086,2.527-0.252,3.756c-2.006-0.912-4.004-2.078-6.182-2.961
	c-8.506-3.447-13.001-0.707-17.348,1.943c-7.33,4.469-13.134,6.539-20.254,1.779c-0.389-0.26-0.779-0.531-1.191-0.818
	c-2.835-1.973-6.288-4.375-10.942-3.736c0.012-9.652,4.89-18.507,13.052-23.689c4.972-3.157,7.94-8.555,7.94-14.439v-4.764h14.184
	v4.764c0,5.873,2.983,11.28,7.98,14.465c2.633,1.678,4.956,3.769,6.904,6.213c0.488,0.613,1.381,0.714,1.993,0.226
	s0.714-1.38,0.226-1.993c-2.145-2.691-4.7-4.992-7.599-6.838c-4.176-2.661-6.668-7.174-6.668-12.073v-4.911
	c2.276-0.554,3.971-2.61,3.971-5.054c0-2.868-2.333-5.201-5.2-5.201h-0.142l1.054-9.88C59.519,2.261,58.396,1,56.942,1h-7.188
	c-0.784,0-1.418,0.635-1.418,1.418s0.635,1.418,1.418,1.418h6.743l-1.038,9.74H44.049l-1.038-9.74h0.648
	c0.784,0,1.418-0.635,1.418-1.418S44.443,1,43.659,1h-1.092c-1.442,0-2.578,1.251-2.423,2.696l1.053,9.881h-0.141
	c-2.868,0-5.201,2.333-5.201,5.201c0,2.444,1.695,4.5,3.971,5.054v4.911c0,4.908-2.477,9.411-6.625,12.044
	c-8.997,5.712-14.368,15.477-14.368,26.122c0,0.578,0.017,1.156,0.05,1.732c0,0.035,0.003,0.072,0.006,0.107
	c0.387,6.318,2.755,12.451,6.766,17.439c0.28,0.35,0.691,0.531,1.106,0.531c0.312,0,0.625-0.104,0.887-0.312
	c0.611-0.492,0.708-1.385,0.217-1.996c-3.4-4.23-5.5-9.361-6.051-14.689c3.694-0.6,6.477,1.336,9.176,3.215
	c0.405,0.283,0.824,0.574,1.235,0.85c8.15,5.449,14.913,3.4,23.307-1.717c4.259-2.596,7.623-4.646,14.806-1.736
	c2.181,0.885,4.418,2.213,6.706,3.193c-2.974,12.195-13.969,21.352-27.039,21.467c-0.081,0-0.161,0-0.241,0
	c-6.479,0-12.81-2.293-17.854-6.475c-0.603-0.5-1.498-0.416-1.998,0.188c-0.5,0.604-0.416,1.496,0.187,1.998
	c5.552,4.602,12.526,7.127,19.664,7.127c0.089,0,0.178,0,0.267-0.002c8.201-0.072,15.9-3.32,21.678-9.146
	c5.781-5.828,8.966-13.562,8.966-21.773C80.676,62.012,79.564,57.328,77.372,52.986L77.372,52.986z M38.691,18.777
	c0-1.304,1.061-2.364,2.364-2.364h17.399c1.304,0,2.364,1.06,2.364,2.364s-1.061,2.364-2.364,2.364H41.055
	C39.751,21.142,38.691,20.081,38.691,18.777L38.691,18.777z"/>
<path d="M35.854,60.473c0,3.27,2.66,5.932,5.931,5.932s5.931-2.662,5.931-5.932s-2.66-5.93-5.931-5.93S35.854,57.203,35.854,60.473z
	 M44.879,60.473c0,1.707-1.388,3.094-3.094,3.094s-3.094-1.387-3.094-3.094c0-1.705,1.388-3.094,3.094-3.094
	S44.879,58.768,44.879,60.473z"/>
<path d="M53.15,42.031c-2.831,0-5.133,2.302-5.133,5.133c0,2.83,2.302,5.132,5.133,5.132c2.83,0,5.133-2.302,5.133-5.132
	C58.283,44.334,55.98,42.031,53.15,42.031L53.15,42.031z M53.15,49.46c-1.266,0-2.296-1.03-2.296-2.296
	c0-1.267,1.03-2.296,2.296-2.296c1.267,0,2.296,1.03,2.296,2.296C55.446,48.43,54.416,49.46,53.15,49.46z"/>
</svg>
