<?xml version="1.0" encoding="utf-8"?>
<!-- Generator: Adobe Illustrator 16.0.0, SVG Export Plug-In . SVG Version: 6.00 Build 0)  -->
<!DOCTYPE svg PUBLIC "-//W3C//DTD SVG 1.1//EN" "http://www.w3.org/Graphics/SVG/1.1/DTD/svg11.dtd">
<svg version="1.1" id="Layer_1" xmlns="http://www.w3.org/2000/svg" xmlns:xlink="http://www.w3.org/1999/xlink" x="0px" y="0px"
	 width="100px" height="100px" viewBox="0 0 100 100" enable-background="new 0 0 100 100" xml:space="preserve">
<path fill-rule="evenodd" clip-rule="evenodd" fill="#64B0BF" d="M81.838,10.638c-1.268-1.684-2.415-1.328-3.722-0.044
	C71.4,17.192,63.254,20.974,54.1,22.816c-1.632,0.329-2.138-0.082-2.112-1.721c0.066-4.222-0.042-8.446,0.03-12.667
	c0.025-1.425-0.49-1.744-1.834-1.779c-1.471-0.039-1.761,0.519-1.74,1.836c0.068,4.071-0.114,8.15,0.08,12.213
	c0.108,2.273-0.667,2.417-2.592,2.029c-9.016-1.814-16.971-5.636-23.583-12.091c-1.282-1.252-2.356-1.737-3.712-0.052
	C6.084,26.18,6.075,47.467,18.617,62.928c1.18,1.455,2.222,1.527,3.535,0.216c6.72-6.71,14.917-10.537,24.145-12.394
	c1.658-0.333,2.243-0.059,2.214,1.79c-0.105,6.635-0.041,13.271-0.042,19.907c-0.001,6.711,0.076,13.424-0.051,20.134
	c-0.035,1.875,0.726,2.068,2.243,2.013c1.792-0.065,1.323-1.335,1.325-2.271c0.024-13.196,0.033-26.393-0.007-39.589
	c-0.005-1.69,0.203-2.359,2.256-1.951c9.179,1.825,17.267,5.687,23.975,12.264c1.411,1.384,2.518,1.386,3.688-0.222
	c2.266-3.111,4.462-6.277,5.918-9.854C94.026,37.716,91.628,23.653,81.838,10.638z M48.471,37c-0.003,0-0.006,0-0.009,0
	c0,3-0.034,5.541,0.017,8.327c0.02,1.083-0.267,1.527-1.454,1.717c-9.571,1.537-18.175,5.244-25.456,11.743
	c-1.203,1.073-1.469,0.085-1.961-0.598c-8.689-12.041-9.155-28.457-1.167-41.022c2.024-3.185,2.023-3.179,4.949-0.836
	c6.853,5.49,14.699,8.749,23.316,10.127c1.489,0.238,1.831,0.784,1.79,2.145C48.412,31.388,48.471,34,48.471,37z M80.75,58.305
	c-0.828,1.097-1.287,1.025-2.252,0.187c-6.93-6.027-14.971-9.751-24.035-11.173c-1.92-0.301-2.655-0.826-2.512-2.824
	C52.136,41.944,51.996,39,51.996,37c0.008,0,0.017,0,0.025,0c0-3,0.017-5.774-0.009-8.563c-0.009-1.003,0.14-1.658,1.397-1.854
	c9.43-1.478,17.906-5.188,25.135-11.502c1.039-0.907,1.482-0.764,2.25,0.265C89.921,27.587,89.896,46.187,80.75,58.305z"/>
</svg>
