<?xml version="1.0" encoding="utf-8"?>
<!-- Generator: Adobe Illustrator 16.0.0, SVG Export Plug-In . SVG Version: 6.00 Build 0)  -->
<!DOCTYPE svg PUBLIC "-//W3C//DTD SVG 1.1//EN" "http://www.w3.org/Graphics/SVG/1.1/DTD/svg11.dtd">
<svg version="1.1" id="Layer_1" xmlns="http://www.w3.org/2000/svg" xmlns:xlink="http://www.w3.org/1999/xlink" x="0px" y="0px"
	 width="100px" height="100px" viewBox="0 0 100 100" enable-background="new 0 0 100 100" xml:space="preserve">
<path fill-rule="evenodd" clip-rule="evenodd" fill="#CD9BCE" d="M85.64,19.954C73.155,14.499,60.71,8.956,48.253,3.441
	c-2.962-1.311-4.024-0.771-4.024,2.49C44.229,19.808,44,33.685,44,47.561c0,1.019,0,2.037,0,3.493c0-0.855-1.185-1.362-1.719-1.854
	c-5.784-5.322-14.01-6.288-20.609-2.403c-6.735,3.965-10.017,11.759-8.164,19.182c2.09,8.366,10.102,14.201,18.31,13.362
	c9.254-0.945,15.945-8.047,16.125-17.335c0.124-6.483,0.043-12.972,0.046-19.457c0.003-5.121,0.004-10.243,0.004-15.451
	c1.559,0.203,2.717,0.936,3.93,1.479c9.198,4.126,18.283,8.535,27.624,12.308c3.905,1.577,5.313,3.479,5.047,7.696
	c-0.416,6.581-0.11,13.207-0.11,20.4c-0.931-0.981-1.362-1.513-1.869-1.959c-5.536-4.879-11.832-6.215-18.668-3.403
	c-6.771,2.784-10.388,8.173-10.722,15.412c-0.447,9.696,7.29,17.908,16.657,18.096c10.229,0.205,18.107-7.36,18.131-17.534
	c0.042-18.628-0.006-37.256,0.062-55.884C88.082,21.76,87.414,20.73,85.64,19.954z M30.473,75.812
	c-7.557-0.029-13.953-6.386-13.885-13.795c0.073-7.855,6.435-14.214,14.089-14.082c7.644,0.132,13.801,6.466,13.772,14.17
	C44.422,69.55,38.005,75.844,30.473,75.812z M84.482,39.32C72.476,33.923,60.892,28.704,49.29,23.526
	c-0.992-0.443-1.301-1.042-1.291-2.081c0.04-4.146,0.031-8.292-0.012-12.438c-0.014-1.396,0.353-1.66,1.69-1.061
	c11.121,4.981,22.271,9.902,33.414,14.835c0.785,0.348,1.423,0.677,1.412,1.755C84.455,29.356,84.482,34.177,84.482,39.32z
	 M70.494,93.559c-7.656-0.021-13.807-6.295-13.769-14.049c0.037-7.586,6.238-13.684,13.904-13.672
	c7.675,0.011,13.861,6.12,13.869,13.696C84.508,87.428,78.365,93.579,70.494,93.559z"/>
</svg>
