<svg xmlns="http://www.w3.org/2000/svg" xmlns:xlink="http://www.w3.org/1999/xlink" style="display: none;">
	<defs>
		<symbol id='Barbarian' viewBox="0 0 54.8 78.6">
			<title>Barbarian</title>
			<polygon points="44.3,50.5 43.9,50.2 37.2,35.9 37.3,35.4 37.1,35 36.4,34.9 34,36 33.7,36.6 33.8,37 34.3,37.2 
				41,51.6 40.9,52.1 41.1,52.4 41.7,52.6 44.1,51.5 44.5,50.9 			"/>
			<polygon points="32.2,23.3 26.6,11.4 25.5,11.4 25.1,10.6 24.1,10.6 23.3,10.9 22.7,11.8 23.1,12.6 22.3,13.4 
				27.9,25.3 29.2,25.6 31.6,24.5 			"/>
			
				<rect x="27.6" y="28.9" transform="matrix(0.4226 0.9063 -0.9063 0.4226 46.3139 -12.2548)" width="10.4" height="2.7"/>
			<path d="M26.3,23.7l-4-8.6c-1,0.2-2.2,0.2-3.5-0.1C15.5,14.1,13.2,9,13.2,9s-2.5,2.5-3,6.9l2.8,0.9l-2.9,0.5
				c0,2.2,0.5,4.8,1.8,7.7c0.3,0.7,0.6,1.3,1,1.9l3.3-1.6l-2.4,3c4.9,7,11.8,7.5,11.8,7.5s-3-6.4-1.6-9.4
				C24.7,25.3,25.5,24.4,26.3,23.7z"/>
			<path d="M28,12.7l3.8,8.2l0.7-0.4l0.8,1.6l2.8,0.1c0,0,0.8-3.6-1.2-7.8c-2-4.3-5.3-5.9-5.3-5.9L28,10.7l0.8,1.6
				L28,12.7z"/>
		</symbol>

		<symbol id='Bard' viewBox="0 0 54.8 78.6">
			<title>Bard</title>
			<path d="M27.8,17.7c1.3,0,2.3-0.6,2.3-1.4l-2.2-6.5l2.2,0.4c-0.7,3.7,2.6,4.5,2.6,4.5c-2.7-1.7-1-6.1-1-6.1
				l-5.8-1.4l2.9,7.8c-0.3-0.1-0.6-0.2-1-0.2c-1.3,0-2.3,0.6-2.3,1.4C25.5,17.1,26.5,17.7,27.8,17.7z"/>
			<path d="M33,20.5c0.8,0.5,1.7,0.6,2.1,0.1l2.4-7.5L36.3,13l-1.5,6.2c-0.2-0.2-0.3-0.4-0.6-0.5
				c-0.8-0.5-1.7-0.6-2.1-0.1C31.8,19.1,32.2,19.9,33,20.5z"/>
			<path d="M15.8,24L6.3,26l5.5,5.6c-0.3,0-0.6,0.1-0.9,0.3c-1.1,0.5-1.7,1.4-1.4,2.1c0.3,0.7,1.4,0.8,2.5,0.3
				c1.1-0.5,1.7-1.4,1.4-2.1l-3.3-3.8l5.6-1.6l1.7,5.6c-0.4,0-0.8,0.1-1.2,0.3c-1.1,0.5-1.7,1.4-1.4,2.1c0.3,0.7,1.4,0.8,2.5,0.3
				c1.1-0.5,1.7-1.4,1.4-2.1L15.8,24z"/>
			<path d="M15.8,12.6l0.6,0.6l0.5-0.5l0.6,0.6c0,0,0.5-0.7-0.2-1.4c-0.8-0.8-1.4-0.2-1.4-0.2l0.6,0.6L15.8,12.6z"/>
			<path d="M13.8,10.5l0.6,0.6l0.5-0.5l0.6,0.6c0,0,0.5-0.7-0.2-1.4s-1.4-0.2-1.4-0.2l0.6,0.6L13.8,10.5z"/>
			<path d="M11.7,8.5L12.3,9l0.5-0.5L13.3,9c0,0,0.5-0.7-0.2-1.4c-0.8-0.8-1.4-0.2-1.4-0.2l0.6,0.6L11.7,8.5z"/>
			<path d="M11.9,16.5l-0.5,0.5l-0.6-0.6c0,0-0.5,0.7,0.2,1.4c0.8,0.8,1.4,0.2,1.4,0.2l-0.6-0.6l0.5-0.5L11.9,16.5z"
				/>
			<path d="M9.8,14.5L9.3,15l-0.6-0.6c0,0-0.5,0.7,0.2,1.4c0.8,0.8,1.4,0.2,1.4,0.2l-0.6-0.6l0.5-0.5L9.8,14.5z"/>
			<path d="M8.3,14.1l-0.6-0.6L8.3,13l-0.6-0.6l-0.5,0.5l-0.6-0.6c0,0-0.5,0.7,0.2,1.4C7.7,14.6,8.3,14.1,8.3,14.1z"
				/>
			<path d="M38.5,27.4c-5.1-5.1-14.9-5.6-14.9-5.6L17,15.9l-0.3-1.5l-6.1-6.1L8.7,9.4l-1.2,1.9l6.1,6.1l1.5,0.3
				l5.9,6.5c0,0,0.5,9.8,5.6,14.9c5.1,5.1,9.9,4.2,13,1.2C42.7,37.2,43.6,32.5,38.5,27.4z M28.4,33.6c-1.2-1.2-1.2-3.2,0-4.5
				c1.2-1.2,3.2-1.2,4.5,0c1.2,1.2,1.2,3.2,0,4.5C31.6,34.8,29.6,34.8,28.4,33.6z M34.2,39.4L33,38.2l4.5-4.5l1.1,1.1L34.2,39.4z"/>
		</symbol>
		
		<symbol id='Cleric' viewBox="0 0 54.8 78.6">
			<title>Cleric</title>
			<path d="M21,25.7c0,0,0.9,2.7,1.2,7.3c-4.3-0.8-7.7-4.1-8.7-8.3c3.6-1,7.1,0.6,7.1,0.6l2.5-2.5H8.6L11,26
				c0.4-0.3,0.8-0.5,1.2-0.7c1.2,4.8,5.2,8.4,10.1,9.2c0.1,4.1-0.2,9.4-1.9,15.6l3.2,3.4V23.2h0L21,25.7z"/>
			<path d="M21.1,10.2c-4.4,1.1-7.8,4.6-8.9,9c-0.4-0.2-0.8-0.5-1.2-0.8l-2.3,3.2h14.5v0L20.6,19
				c0,0-3.7,1.5-7.1,0.7c0.9-3.9,4-7.1,7.9-8.1c1,4.4-0.4,7-0.4,7l2.5,2.5V5.9l-3.2,2.3C20.6,8.9,20.9,9.6,21.1,10.2z"/>
			<path d="M27.8,25.3c0,0,3.5-1.6,7.1-0.6c-1,4.2-4.4,7.5-8.7,8.3c0.3-4.6,1.2-7.4,1.2-7.4l-2.5-2.5h0v30.3l3.2-3.4
				c-1.7-6.1-2-11.5-1.9-15.6c4.9-0.8,8.9-4.4,10.1-9.2c0.4,0.2,0.8,0.4,1.2,0.7l2.3-3.2H25.4L27.8,25.3z"/>
			<path d="M27,11.6c3.9,1,7,4.1,7.9,8.1c-3.3,0.9-7.1-0.7-7.1-0.7l-2.5,2.5v0h14.5l-2.3-3.2
				c-0.4,0.3-0.8,0.6-1.2,0.8c-1.1-4.4-4.6-7.8-8.9-9C27.2,10.6,27.1,11.1,27,11.6c0.2-1,0.6-2.1,1.1-3.3l-3.2-2.3v15.2l2.5-2.5
				C27.4,18.6,26,16,27,11.6z"/>
		</symbol>

		<symbol id='Druid' viewBox="0 0 54.8 78.6">
			<title>Druid</title>
			<g>
				<path d="M33,19.9c0.4-0.9,0.1-2.5-1.1-3.1c-1.3-0.7-2.5,0-3,0.9c-0.5,0.9-0.1,1.9,0.7,2.3c0.8,0.4,1.5,0,1.8-0.6
					c0.3-0.5,0-0.9-0.3-1.1c-0.3-0.1-0.6-0.1-0.7,0.1c-0.1,0.1,0,0.3,0.2,0.3c0.1,0.1,0.2,0.2,0.1,0.4c-0.1,0.2-0.4,0.3-0.6,0.1
					c-0.4-0.2-0.6-0.7-0.3-1.3c0.3-0.6,1.1-0.8,1.7-0.5c0.6,0.3,1.3,1.2,0.7,2.3c-0.7,1.3-2.1,1.3-2.9,0.9c-0.3-0.2-0.7-0.5-1-0.9
					c-0.1,1.2,0.2,2.5,0.9,3.6c0.6,0.9,1.5,1.6,2.4,2.1c-0.3-0.5-0.5-1.1-0.5-1.6C30.8,21.5,32.5,20.7,33,19.9z"/>
				<path d="M39.6,19.4c-0.2,0.6-0.7,1.2-1.3,1.6c-1.9,1.3-3.4,0.2-4.4,0.2c-1,0.1-2.2,1.1-2.1,2.5
					c0.1,1.5,1.2,2.2,2.2,2.2c1-0.1,1.7-0.9,1.7-1.8c0-0.8-0.8-1.3-1.4-1.3c-0.6,0-0.8,0.5-0.8,0.8c0,0.3,0.2,0.6,0.4,0.6
					c0.2,0,0.2-0.2,0.2-0.3c0-0.1,0-0.3,0.3-0.3c0.3,0,0.4,0.2,0.4,0.5c0,0.5-0.3,0.9-0.9,0.9c-0.7,0-1.2-0.5-1.3-1.3
					c0-0.6,0.4-1.7,1.7-1.8c1.4-0.1,2.2,1.1,2.2,2.1c0,0.4-0.1,1-0.4,1.4c0.3-0.1,0.6-0.3,0.9-0.5C39,23.8,39.9,21.5,39.6,19.4z"/>
				<path d="M32.2,16c2.1,1,1.9,3,2.4,3.7c0.5,0.8,2.1,1.3,3.2,0.6c1.2-0.8,1.3-2.2,0.7-3c-0.6-0.8-1.6-1-2.4-0.6
					c-0.7,0.5-0.8,1.3-0.4,1.9c0.3,0.5,0.8,0.4,1.1,0.3c0.3-0.2,0.4-0.5,0.3-0.7c-0.1-0.1-0.3-0.1-0.4,0c-0.1,0.1-0.3,0.1-0.4-0.1
					c-0.2-0.2,0-0.5,0.2-0.6c0.4-0.3,0.9-0.1,1.3,0.3c0.4,0.6,0.1,1.3-0.5,1.7c-0.5,0.3-1.7,0.5-2.4-0.6c-0.8-1.2-0.1-2.5,0.7-3
					c0.4-0.2,0.9-0.4,1.6-0.4c-1.9-1.4-4.5-1.6-6.6-0.2c-0.1,0.1-0.2,0.2-0.3,0.2C31,15.6,31.6,15.7,32.2,16z"/>
				<path d="M40.1,16.2c-2.2-3.4-6.8-4.4-10.2-2.1c-3.4,2.2-4.4,6.8-2.1,10.2c2.2,3.4,6.8,4.4,10.2,2.1
					C41.3,24.2,42.3,19.6,40.1,16.2z M37.5,25.7c-3,2-7.1,1.1-9-1.9s-1.1-7.1,1.9-9c3-2,7.1-1.1,9,1.9
					C41.3,19.7,40.5,23.7,37.5,25.7z"/>
			</g>
			<g>
				<path d="M19.5,42.2c1.5,0.4,3.1,0.7,4.7,0.7c1.7,0,3.3-0.3,4.8-0.7l-4.7-3.9L19.5,42.2z"/>
				<path d="M23.4,8.4c-3.6,0.2-6.8,1.4-9.5,3.4L20,14L23.4,8.4z"/>
				<path d="M7.1,23.7C7,24.3,7,24.9,7,25.6c0,2.8,0.7,5.5,1.9,7.9l3.1-5.5L7.1,23.7z"/>
				<path d="M12.4,13c-2.5,2.3-4.2,5.3-5,8.7l6.1-2.3L12.4,13z"/>
				<path d="M9.9,35.2c1.8,2.7,4.4,4.9,7.5,6.2l-1.2-6.1L9.9,35.2z"/>
				<circle cx="24.2" cy="25.6" r="2.7"/>
				<path d="M33.9,11.8c0.3,0,0.5,0.1,0.8,0.1c-2.6-2-5.9-3.3-9.4-3.5l3.2,5.4C30,12.6,31.8,11.8,33.9,11.8z"/>
				<path d="M41.4,23.9c-1,1.9-2.6,3.4-4.6,4.2l2.9,5.2c1.2-2.3,1.8-4.9,1.8-7.7C41.5,25,41.4,24.5,41.4,23.9z"/>
				<path d="M24.2,36.3c4.9,0,9-3.3,10.3-7.7c-0.2,0-0.4,0-0.6,0c-1.8,0-3.4-0.5-4.7-1.5c-0.7,2.1-2.6,3.6-4.9,3.6
					c-2.9,0-5.2-2.3-5.2-5.2s2.3-5.2,5.2-5.2c0.4,0,0.9,0.1,1.3,0.2c0-0.1,0-0.2,0-0.3c0-1.9,0.6-3.6,1.6-4.9
					c-0.9-0.3-1.9-0.4-2.9-0.4c-5.9,0-10.7,4.8-10.7,10.7S18.3,36.3,24.2,36.3z"/>
				<path d="M31.2,41.3c3-1.3,5.5-3.4,7.3-6.1l-6.2,0.1L31.2,41.3z"/>
				<path d="M8.6,22.8l3.5,3c0-0.1,0-0.2,0-0.3c0-1.6,0.3-3,0.8-4.4L8.6,22.8z"/>
				<path d="M18.5,14.9l-4.4-1.5l0.7,4.6C15.8,16.7,17.1,15.7,18.5,14.9z"/>
				<path d="M24.2,13.5c0.9,0,1.7,0.1,2.5,0.3l-2.4-4.1l-2.4,4.1C22.7,13.6,23.4,13.5,24.2,13.5z"/>
				<path d="M15.2,33.6c-1.1-1.2-1.9-2.6-2.4-4.1l-2.3,4.1L15.2,33.6z"/>
				<path d="M29.8,40.6l0.9-4.8c-1.4,0.9-2.9,1.5-4.6,1.7L29.8,40.6z"/>
				<path d="M38.1,33.6l-2.4-4.3c-0.5,1.6-1.4,3.1-2.5,4.3L38.1,33.6z"/>
				<path d="M18,35.9l0.9,4.6l3.7-3C20.9,37.3,19.4,36.8,18,35.9z"/>
			</g>
		</symbol>
		
		<symbol id='Fighter' viewBox="0 0 54.8 78.6">
			<title>Fighter</title>
			<path d="M17,24l-1-0.6l-0.6-1.2l-0.8,0.4l12.1,22.5c1.5,2.8,2.4,5.1,2.4,5.1s-1.5-2.1-3-4.8L14,23l-0.7,0.4
				l0.6,1.2l-0.1,1.2l13.8,24.9c1.5,2.7,4,4.2,4,4.2s0.2-2.9-1.3-5.6L17,24z"/>
			<path d="M8.6,25.4l11.1-6c0,0,0,0,0,0.1c0.3,0.6,1.1,0.8,1.7,0.5c0.6-0.3,0.8-1.1,0.5-1.7
				c-0.3-0.6-1.1-0.8-1.7-0.5L6.9,25c-0.6,0.3-0.8,1.1-0.5,1.7c0.3,0.6,1.1,0.8,1.7,0.5C8.7,26.9,8.9,26.1,8.6,25.4
				C8.6,25.5,8.6,25.4,8.6,25.4z"/>
			<polygon points="7.3,12.1 7.3,12 9.1,11.1 9.2,10.9 8.8,10.2 8.4,10 6.9,10.8 6.7,11.3 7.1,12 			"/>
			<polygon points="10.8,18.5 12.3,16.9 11.8,16 10.4,17.7 			"/>
			<polygon points="11.4,19.6 12.8,17.9 12.4,17 10.9,18.7 			"/>
			<polygon points="12,20.6 13.4,18.9 12.9,18.1 11.5,19.7 			"/>
			<polygon points="10.3,17.5 11.7,15.8 11.2,15 9.8,16.6 			"/>
			<polygon points="12.4,21.5 14.2,20.5 13.5,19.1 12.1,20.8 			"/>
			<polygon points="8.6,14.4 10,12.7 9.6,11.8 8.1,13.5 			"/>
			<polygon points="9.2,15.4 10.6,13.7 10.1,12.9 8.7,14.6 			"/>
			<polygon points="9.7,16.5 11.1,14.8 10.7,13.9 9.2,15.6 			"/>
			<polygon points="7.5,12.3 7.5,12.3 8,13.3 9.5,11.7 9.3,11.3 7.5,12.3 			"/>
			<path d="M41.6,25l-13.3-7.2c-0.6-0.3-1.4-0.1-1.7,0.5c-0.3,0.6-0.1,1.4,0.5,1.7s1.4,0.1,1.7-0.5c0,0,0,0,0-0.1
				l11.1,6c0,0,0,0,0,0.1c-0.3,0.6-0.1,1.4,0.5,1.7c0.6,0.3,1.4,0.1,1.7-0.5C42.4,26.1,42.2,25.3,41.6,25z"/>
			<polygon points="41.1,12 41.1,12.1 41.3,12 41.7,11.3 41.6,10.8 40,10 39.6,10.2 39.3,10.9 39.3,11.1 			"/>
			<polygon points="38.1,17.7 36.7,16 36.2,16.9 37.6,18.5 			"/>
			<polygon points="37.5,18.7 36.1,17 35.6,17.9 37.1,19.6 			"/>
			<polygon points="37,19.7 35.5,18.1 35.1,18.9 36.5,20.6 			"/>
			<polygon points="38.7,16.6 37.2,15 36.8,15.8 38.2,17.5 			"/>
			<polygon points="36.4,20.8 35,19.1 34.2,20.5 36,21.5 			"/>
			<polygon points="40.3,13.5 38.9,11.8 38.4,12.7 39.9,14.4 			"/>
			<polygon points="39.8,14.6 38.3,12.9 37.9,13.7 39.3,15.4 			"/>
			<polygon points="39.2,15.6 37.8,13.9 37.3,14.8 38.7,16.5 			"/>
			<polygon points="41,12.3 41,12.3 41,12.3 39.2,11.3 39,11.7 40.4,13.3 			"/>
			<polygon points="33.1,22.2 32.4,23.4 31.4,24 24.6,37 25.4,38.4 33.8,22.6 			"/>
			<path d="M22.3,45.4c-1.5,2.8-3,4.8-3,4.8s0.9-2.4,2.4-5.1l0.9-1.7l-0.7-1.3l-3.8,7.2c-1.5,2.7-1.3,5.6-1.3,5.6
				s2.5-1.5,4-4.2l2.9-5.3l-0.7-1.4L22.3,45.4z"/>
			<polygon points="34.5,23 25.7,39.1 26.5,40.6 34.7,25.8 34.6,24.6 35.2,23.4 			"/>
		</symbol>
		
		<symbol id='Monk' viewBox="0 0 54.8 78.6">
			<title>Monk</title>
			<path d="M19.2,48.7h10.1c0-1-0.9-1.9-2.3-2.4h-5.5C20.1,46.8,19.2,47.6,19.2,48.7z"/>
			<polygon points="21.5,45.3 21.5,45.8 27,45.8 27,45.3 25.8,44.7 22.6,44.7 			"/>
			<polygon points="18.3,49.2 14.2,51.6 34.2,51.6 30.2,49.2 			"/>
			<rect x="22.6" y="43.6" width="3.2" height="0.5"/>
			<rect x="22.6" y="36.6" width="3.2" height="0.5"/>
			<path d="M10.9,24.3c0,0,2.8,2.2,3.6,4.4c0.8,1.9,1.5,5.2,6.9,6.3v0.5l1.1,0.6h3.2l1.1-0.6V35
				c5.4-1.1,6.2-4.4,6.9-6.3c0.9-2.2,3.6-4.4,3.6-4.4H10.9z"/>
			<path d="M22.1,37.9v0.4c-1.1,0.4-1.7,1.2-1.7,2.1c0,0.9,0.6,1.7,1.7,2.1h0v0.2l0.5,0.3h3.2l0.5-0.3v-0.2
				c1.1-0.4,1.7-1.2,1.7-2.1c0-0.9-0.6-1.7-1.7-2.1v-0.4l-0.5-0.3h-3.2L22.1,37.9z"/>
			<path d="M23.1,22.5c-0.4-0.5-0.6-1.3-0.6-2.1c0-1.5,1.8-6.1,1.8-6.1s1.8,4.5,1.8,6.1c0,0.9-0.2,1.6-0.6,2.1
				c1.3-0.6,2-2.4,2-4.4c0-2.6-3.2-10.3-3.2-10.3s-3.2,7.7-3.2,10.3C21.1,20.2,21.7,21.9,23.1,22.5z"/>
		</g>
		
		<symbol id='Paladin' viewBox="0 0 54.8 78.6">
			<title>Paladin</title>
			<path d="M23.6,8.6h1.5c0.7-0.2,1.1-0.8,1.1-1.4c0-0.9-0.8-1.6-1.9-1.6c-1,0-1.9,0.7-1.9,1.6
				C22.5,7.8,23,8.4,23.6,8.6z"/>
			<path d="M17.2,19.2h14.3l0.8,2.5c0,0,0.7-1.2,0.7-2.2s-0.3-1.6-0.3-1.6H16.1c0,0-0.3,0.6-0.3,1.6s0.7,2.2,0.7,2.2
				L17.2,19.2z"/>
			<path d="M25.1,9h-1.5L23,9.7c0,0,0.5,0.8,0.5,3.5c0,2.7-0.5,3.5-0.5,3.5l0.4,0.8h1.8l0.4-0.8c0,0-0.5-0.8-0.5-3.5
				c0-2.7,0.5-3.5,0.5-3.5L25.1,9z"/>
			<path d="M27,21.7c0,0-1.5-0.8-1.5-2h-0.6c0,0-0.1,28.8-0.2,29.8c-0.2,1-0.3,1.7-0.3,1.7s-0.1-0.7-0.3-1.7
				c-0.2-1-0.2-29.8-0.2-29.8h-0.6c0,1.2-1.5,2-1.5,2c1.8,15.1,0.7,15.1,0.7,25c0,3.3,2,11,2,11s2-7.7,2-11
				C26.3,36.8,25.2,36.8,27,21.7z"/>
			<path d="M10.9,16.8c0.4-0.6,0.6-1.3,0.9-1.9c-0.7,0.5-1.5,1.1-1.9,1.7c-0.3,0.4-0.5,1-0.2,1.4
				C10.2,17.7,10.7,17.2,10.9,16.8z"/>
			<path d="M10.5,18.9c0.4-0.6,0.6-1.2,0.9-1.8c-0.7,0.4-1.4,0.9-1.8,1.4c-0.4,0.4-0.6,1-0.4,1.4
				C9.8,19.7,10.3,19.2,10.5,18.9z"/>
			<path d="M8.6,21.9c0.6-0.1,1.1-0.5,1.4-0.9c0.4-0.6,0.5-1.2,0.8-1.8C10.1,19.6,9.3,20,9,20.5
				C8.6,20.9,8.4,21.5,8.6,21.9z"/>
			<path d="M8.2,21.9c0.3-0.5,0.3-1,0.2-1.4c-0.1-0.4-0.7-0.8-1-1.2c-0.2,0.7-0.5,1.4-0.3,2
				C7.1,21.6,7.6,21.9,8.2,21.9z"/>
			<path d="M8.7,24.1c0.6-0.2,1.1-0.6,1.3-1c0.3-0.6,0.3-1.2,0.4-1.8c-0.6,0.4-1.4,0.9-1.7,1.4
				C8.4,23.1,8.3,23.6,8.7,24.1z"/>
			<path d="M8.2,24.1c0.2-0.5,0.1-1-0.2-1.4c-0.3-0.4-1-0.7-1.5-1c-0.1,0.6-0.1,1.4,0.2,2C6.9,24,7.5,24.2,8.2,24.1z
				"/>
			<path d="M10.4,25c0.2-0.6,0.1-1.2,0.1-1.7c-0.6,0.4-1.3,1-1.6,1.5c-0.2,0.5-0.2,1,0.3,1.3
				C9.8,25.9,10.3,25.4,10.4,25z"/>
			<path d="M8.7,26.2c0.1-0.5-0.1-1-0.5-1.3c-0.4-0.4-1.3-0.6-1.9-0.8c0.1,0.6,0.2,1.4,0.7,1.8
				C7.3,26.2,8,26.4,8.7,26.2z"/>
			<path d="M10.2,28c0.6-0.3,1-0.8,1.1-1.2c0.1-0.6-0.2-1.1-0.3-1.7c-0.6,0.5-1.2,1.1-1.4,1.6
				C9.5,27.2,9.7,27.7,10.2,28z"/>
			<path d="M9.7,28.1c0-0.5-0.4-0.9-0.8-1.2c-0.5-0.3-1.5-0.4-2.2-0.5c0.2,0.6,0.5,1.3,1.2,1.7
				C8.3,28.3,9.1,28.4,9.7,28.1z"/>
			<path d="M11.7,29.7c0.6-0.3,0.9-0.9,0.9-1.3c0-0.5-0.4-1.1-0.7-1.6c-0.5,0.5-1.1,1.2-1.1,1.7
				C10.8,29,11.1,29.5,11.7,29.7z"/>
			<path d="M11.2,29.9c-0.1-0.5-0.6-0.9-1.2-1.1c-0.6-0.2-1.7-0.2-2.5-0.2c0.4,0.5,0.9,1.2,1.7,1.5
				C9.7,30.3,10.6,30.3,11.2,29.9z"/>
			<path d="M12.5,30.2c0.1,0.5,0.4,0.9,1.2,1c0.6-0.4,0.8-1,0.7-1.4c-0.1-0.5-0.7-1-1-1.5
				C13,28.9,12.4,29.7,12.5,30.2z"/>
			<path d="M13.2,31.5c-0.2-0.5-0.8-0.8-1.5-0.9c-0.7-0.1-1.9,0-2.8,0.1c0.5,0.5,1.2,1.1,2.1,1.3
				C11.7,32.1,12.6,31.9,13.2,31.5z"/>
			<path d="M16.1,32.5c0.5-0.4,0.7-1.1,0.5-1.5c-0.2-0.5-0.9-0.9-1.4-1.3c-0.3,0.6-0.7,1.4-0.5,1.9
				C14.8,32.1,15.3,32.5,16.1,32.5z"/>
			<path d="M15.6,32.8c-0.3-0.5-1-0.7-1.7-0.7c-0.8-0.1-2,0.2-3,0.4c0.7,0.4,1.5,0.9,2.5,1
				C14.1,33.6,15,33.3,15.6,32.8z"/>
			<path d="M17.2,32.8c0.2,0.4,1,0.8,1.8,0.7c0.4-0.5,0.5-1.1,0.2-1.5c-0.4-0.5-1.2-0.8-1.8-1.1
				C17.2,31.4,16.9,32.2,17.2,32.8z"/>
			<path d="M13.4,34.1c0.8,0.3,1.9,0.8,2.9,0.7c0.8,0,1.7-0.4,2.2-0.9c-0.4-0.4-1.2-0.6-2-0.5
				C15.5,33.4,14.3,33.8,13.4,34.1z"/>
			<path d="M8.5,19.9c0.5-0.4,0.7-1,0.8-1.5c0.1-0.5-0.1-1.1-0.2-1.6c-0.5,0.7-1.1,1.4-1.2,2.1
				C7.8,19.2,7.9,19.7,8.5,19.9z"/>
			<path d="M19.3,38.8c0,0,0.9-0.8,2.4-1.8c0-0.3,0-0.7,0-1c-0.9,0.5-1.9,1.1-2.8,1.8L19.3,38.8z"/>
			<path d="M21.8,34.8c0-0.1,0-0.3,0-0.4c-1.8-0.6-2.9-0.6-2.9-0.6C19.9,34.1,20.9,34.4,21.8,34.8z"/>
			<path d="M38.8,18c0.3-0.4,0.1-0.9-0.2-1.4c-0.4-0.6-1.2-1.2-1.9-1.7c0.3,0.6,0.5,1.3,0.9,1.9
				C37.8,17.2,38.2,17.7,38.8,18z"/>
			<path d="M37,17.1c0.3,0.6,0.5,1.2,0.9,1.8c0.2,0.4,0.7,0.8,1.3,1c0.2-0.4,0-1-0.4-1.4
				C38.5,17.9,37.7,17.5,37,17.1z"/>
			<path d="M38.4,21c0.3,0.4,0.8,0.8,1.4,0.9c0.2-0.5,0-1-0.4-1.4c-0.4-0.4-1.2-0.9-1.8-1.2
				C37.9,19.9,38.1,20.5,38.4,21z"/>
			<path d="M40.1,20.4c-0.1,0.4-0.1,0.9,0.2,1.4c0.6,0.1,1.1-0.3,1.2-0.6c0.2-0.6-0.1-1.4-0.3-2
				C40.8,19.6,40.3,20,40.1,20.4z"/>
			<path d="M39.8,22.7c-0.3-0.5-1.1-1-1.7-1.4c0.1,0.6,0.1,1.2,0.4,1.8c0.2,0.4,0.7,0.8,1.3,1
				C40.1,23.6,40,23.1,39.8,22.7z"/>
			<path d="M40.5,22.7c-0.3,0.4-0.4,0.9-0.2,1.4c0.6,0.1,1.2-0.1,1.5-0.4c0.4-0.6,0.3-1.3,0.2-2
				C41.5,22,40.8,22.3,40.5,22.7z"/>
			<path d="M39.5,24.7c-0.2-0.5-1-1.1-1.6-1.5c0,0.6-0.1,1.2,0.1,1.7c0.1,0.4,0.6,0.9,1.2,1.1
				C39.7,25.7,39.7,25.2,39.5,24.7z"/>
			<path d="M41.5,25.9c0.5-0.5,0.6-1.2,0.7-1.8c-0.6,0.2-1.5,0.4-1.9,0.8c-0.4,0.3-0.6,0.8-0.5,1.3
				C40.4,26.4,41.1,26.2,41.5,25.9z"/>
			<path d="M38.2,28c0.6-0.3,0.7-0.8,0.6-1.3c-0.1-0.5-0.8-1.1-1.4-1.6c-0.1,0.5-0.4,1.1-0.3,1.7
				C37.2,27.2,37.6,27.7,38.2,28z"/>
			<path d="M38.8,28.1c0.6,0.3,1.4,0.2,1.9,0c0.7-0.4,1-1.1,1.2-1.7c-0.7,0.1-1.7,0.2-2.2,0.5
				C39.1,27.2,38.8,27.6,38.8,28.1z"/>
			<path d="M36.7,29.7c0.7-0.2,0.9-0.7,0.9-1.2c0-0.5-0.6-1.2-1.1-1.7c-0.3,0.5-0.7,1-0.7,1.6
				C35.8,28.8,36.1,29.4,36.7,29.7z"/>
			<path d="M37.3,29.9c0.6,0.3,1.5,0.4,2,0.2c0.8-0.3,1.3-1,1.7-1.5c-0.8,0-1.9,0-2.5,0.2
				C37.9,29,37.4,29.4,37.3,29.9z"/>
			<path d="M34.7,31.2c0.8-0.1,1.1-0.6,1.2-1c0.1-0.5-0.5-1.3-0.9-1.8c-0.4,0.5-0.9,0.9-1,1.5
				C33.9,30.3,34.2,30.8,34.7,31.2z"/>
			<path d="M36.8,30.6c-0.7,0.1-1.2,0.4-1.5,0.9c0.6,0.4,1.5,0.6,2.1,0.4c0.9-0.2,1.6-0.8,2.1-1.3
				C38.6,30.6,37.5,30.4,36.8,30.6z"/>
			<path d="M31.9,31c-0.2,0.4,0,1,0.5,1.5c0.8,0,1.3-0.5,1.5-0.9c0.2-0.5-0.2-1.3-0.5-1.9
				C32.8,30.1,32.1,30.5,31.9,31z"/>
			<path d="M32.9,32.8c0.5,0.5,1.4,0.7,2.2,0.7c1-0.1,1.8-0.6,2.5-1c-1-0.2-2.1-0.4-3-0.4
				C33.9,32.1,33.2,32.4,32.9,32.8z"/>
			<path d="M29.5,33.5c0.8,0.1,1.5-0.3,1.8-0.7c0.3-0.5,0-1.3-0.2-2c-0.6,0.3-1.4,0.7-1.8,1.1
				C29,32.4,29.1,33,29.5,33.5z"/>
			<path d="M30,33.9c0.5,0.5,1.4,0.9,2.2,0.9c1,0,2.1-0.4,2.9-0.7c-1-0.3-2.1-0.6-3.1-0.7
				C31.2,33.3,30.4,33.5,30,33.9z"/>
			<path d="M40,19.9c0.6-0.2,0.7-0.6,0.6-1c-0.1-0.6-0.7-1.4-1.2-2.1c-0.1,0.5-0.2,1.1-0.2,1.6
				C39.3,18.9,39.5,19.4,40,19.9z"/>
			<path d="M26.9,34.8c0.9-0.4,1.9-0.8,2.9-1.1c0,0-1.1,0.1-2.9,0.6C26.9,34.5,26.9,34.7,26.9,34.8z"/>
			<path d="M27,36.9c1.5,1,2.4,1.8,2.4,1.8l0.4-1c-1-0.7-1.9-1.3-2.8-1.8C27,36.3,27,36.6,27,36.9z"/>
		</symbol>

		<symbol id='Ranger' viewBox="0 0 54.8 78.6">
			<title>Ranger</title>
			<g>
				<path d="M28.7,33.8c-1.1-1.5-1.9-3.8-4.6-3.8c-2.7,0-3.4,2.4-4.6,3.8c-1.1,1.5-3.8,1.7-2.6,4.6
					c0.9,2.3,4.8,0.3,7.2,0.3c2.4,0,6.2,2,7.2-0.3C32.5,35.5,29.9,35.3,28.7,33.8z"/>
				<path d="M26.6,28.9c1.1,0.1,2.9-1.6,2.9-4.5c0-3.2-3.6-5.5-3.6-5.5s0.8,1.7-0.2,3c-0.8,1-1.1,2.5-1.1,4
					C24.6,27.5,25.5,28.8,26.6,28.9z"/>
				<path d="M30.7,24.1c0,0,0.4,1.8-0.6,3.3c-1,1.5-1.4,2.2-1.4,3.6c0,1.4,0.9,2.8,2.4,2.8c1.5,0,2.4-2.4,2.4-3.8
					C33.6,27.8,32.4,25.4,30.7,24.1z"/>
				<path d="M21.7,28.9c1.1-0.1,2-1.5,2-3c0-1.5-0.3-3-1.1-4c-1-1.3-0.2-3-0.2-3s-3.6,2.4-3.6,5.5
					C18.8,27.3,20.6,29,21.7,28.9z"/>
				<path d="M19,31c0-1.4-0.4-2.1-1.4-3.6c-1-1.5-0.6-3.3-0.6-3.3c-1.7,1.3-2.9,3.6-2.9,5.9c0,1.4,0.9,3.8,2.4,3.8
					C18.1,33.7,19,32.4,19,31z"/>
			</g>
			<path d="M24.2,13.7l3.4-3.7l1.9,4.8l4.3-2.1l0.3,5.2l4.7-0.2l-1.5,5l4.5,1.7l-3,4.1l3.6,3.4l-4.1,2.6l2.3,4.6
				L36,39.8l0.6,5.2L32,43.8l-1.1,5.1L26.9,46l-2.7,4.3L21.5,46l-3.9,2.9l-1.1-5.1L11.9,45l0.6-5.2L7.8,39l2.3-4.6L6,31.8l3.6-3.4
				l-3-4.1l4.5-1.7l-1.5-5l4.7,0.2l0.3-5.2l4.3,2.1l1.9-4.8L24.2,13.7z M21.4,13.1l-1.6,4L16,15.4l-0.2,4.4l-4-0.2l1.2,4.2l-3.8,1.4
				l2.5,3.4l-3.1,2.9l3.5,2.2l-1.9,3.9l4,0.6l-0.5,4.4l3.9-1l0.9,4.3l3.3-2.5l2.3,3.6l2.3-3.6l3.3,2.5l0.9-4.3l3.9,1l-0.5-4.4l4-0.6
				l-1.9-3.9l3.5-2.2l-3.1-2.9l2.5-3.4l-3.8-1.4l1.2-4.2l-4,0.2l-0.2-4.4l-3.7,1.8l-1.6-4l-2.9,3.1L21.4,13.1z"/>
		</symbol>

		<symbol id='Rogue' viewBox="0 0 54.8 78.6">
			<title>Rogue</title>
			<path d="M14.8,32.6c0,0,2.7,11.2,9.4,11.2s9.4-11.2,9.4-11.2s-3.8,2.7-9.4,2.7S14.8,32.6,14.8,32.6z"/>
			<path d="M32,31.2c0.5-0.8,0.5-1.9-0.1-3.1l-6.7,3.1C28,32.7,30.9,32.8,32,31.2z"/>
			<path d="M23.3,31.2l-6.7-3.1c-0.6,1.1-0.6,2.3-0.1,3.1C17.5,32.8,20.4,32.7,23.3,31.2z"/>
			<path d="M36,25.5c-4-8.8-5.9-12.7-11.7-12.7s-7.8,3.9-11.7,12.7c-3.8,8.4-6.2,9.6-6.2,14.4
				c0,5.4,10.7,4.7,18,12.4c7.3-7.8,18-7.1,18-12.4C42.2,35.1,39.7,33.9,36,25.5z M26.9,47.6c-1.1,1-2,2.2-2.7,3.7
				c-0.7-1.5-1.6-2.7-2.7-3.7c-5-4.7-12.8-5.8-11.8-10.4c1-4.6,7.4-13.2,7.4-13.2l7.1,3.2l7.1-3.2c0,0,6.4,8.6,7.4,13.2
				C39.7,41.8,31.9,42.9,26.9,47.6z"/>
		</symbol>

		<symbol id='Sorcerer' viewBox="0 0 54.8 78.6">
			<title>Sorcerer</title>
			<path d="M26.1,10.6c-6.4-0.2-9.7,2-9.4,5.2c0.3,4.3,6.4,4.5,9,4c1.8-0.4,2.6-1.1,2.9-2.2c0.2-1.1-1.1-2.4-2.7-2.4
				c-1.5,0-2.8,0.9-2.9,2.2c0.1-2.9,2.9-3.5,4.4-3.4c0.8,0,3.8,0.4,3.5,3.2c-0.3,2.5-3.6,3.7-6.6,4.5c-2.2,0.6-11.6,1.6-11.7,4.6
				c-0.2,4,7.9,3,6.1,6c-0.4,0.8,0.9,0.9,2.8,1c0,0,0,0,0,0c0.9,0.1,3.7,0.4,3.9,1.2c0.2,0.8-2.2,1.7-2.2,1.7s0.9-0.3,0,0
				c-0.9,0.3-2.4,0.8-2.8,1.5c-0.9,1.7,3,3.3,3,3.3s-1.6-1.7-0.3-2.8c1.4-1.2,6.8-2.4,6.9-3.9c0.1-1.9-12.7-2.2-12-6.4
				c0.8-4.6,17.3-3.1,17.7-10.3C35.9,13.5,31,10.8,26.1,10.6z"/>
			<path d="M21.1,29.7c1.5,1,4.9,1.8,4.9,1.8s-4.7-2.7-1.8-3c5.8-0.7-1.7-1.6,3.4-2.4c4.6-0.7,6.8-4.2,6.8-4.2
				s-4.1,2.7-10.3,3.6C20.6,26,19,28.2,21.1,29.7z"/>
			<path d="M24.2,41.4c-3.5,0-6.4,2.9-6.4,6.4c0,3.5,2.9,6.4,6.4,6.4s6.4-2.9,6.4-6.4C30.6,44.3,27.8,41.4,24.2,41.4
				z M24.2,53.8c-3.3,0-6-2.7-6-6c0-3.3,2.7-6,6-6s6,2.7,6,6C30.2,51.1,27.5,53.8,24.2,53.8z"/>
			<path d="M21.9,43.4c-0.4-0.4-1.4-0.1-2.1,0.6c-0.8,0.8-1.1,1.7-0.6,2.1c0.3,0.3,0.9,0.2,1.5-0.1
				c-0.1,0.2-0.1,0.5,0,0.6c0.2,0.2,0.6,0.1,0.9-0.3c0.3-0.3,0.4-0.7,0.3-0.9c-0.1-0.1-0.2-0.1-0.4-0.1
				C22.1,44.7,22.3,43.8,21.9,43.4z"/>
			<polygon points="25.9,43.1 26.7,44 26,44.2 26.7,45.5 24.9,45.7 25.1,44.7 24,44.2 24.9,43.2 23.6,43.4 
				24.1,42.1 22.9,43.8 23.9,43.8 23.6,44.4 24.6,44.9 24,47 23.1,46.8 22.8,45 22.8,47.1 23.9,47.4 24.3,48.1 24.3,49.4 24.6,48 
				24.3,47.2 24.8,46.2 27.2,45.8 26.7,44.5 27.9,44.3 			"/>
		</symbol>
		
		<symbol id='Warlock' viewBox="0 0 54.8 78.6">
			<title>Warlock</title>
			<path d="M36.5,36.1c-0.2-0.1-0.3-0.4-0.4-0.8c1.6-2.6,2.6-3.9,2.6-7.4c0-8.9-6.5-12.4-14.5-12.4S9.7,19,9.7,27.9
				c0,3.4,1,4.7,2.6,7.4c-0.1,0.4-0.2,0.7-0.4,0.8c-0.5,0.3-1.3,0-1.3,0l-0.6,0.6c0,0,1.4,0.7,2.3,1.7c1,1.1,1.3,1.9,1.3,1.9
				s1.8-0.7,3.2,0.2c1.4,0.9,0.8,2.8,0.8,2.8l3,1.4l3.6,0.2l3.6-0.2l3-1.4c0,0-0.6-1.9,0.8-2.8c1.4-0.9,3.2-0.2,3.2-0.2
				s0.4-0.9,1.3-1.9c1-1.1,2.3-1.7,2.3-1.7l-0.6-0.6C37.8,36.1,37,36.4,36.5,36.1z M25.3,16.5l-0.8,6.3l3-2L25,26.9l5-1.8l-6.2,10
				l0.8-5.9l-2.9,1.5l2.3-5.8l-3.8,1.8L25.3,16.5z M12.8,31.6c0-1.8,1.2-3.4,3.2-4.6l7.3,11.2C17.3,37.9,12.8,35,12.8,31.6z
					M24.4,42.2L22,43.1l1.2-3.6h2.4l1,3.6L24.4,42.2z M25.6,38.2l7-11.1c1.9,1.2,3.1,2.8,3.1,4.5C35.7,35,31.3,37.8,25.6,38.2z"/>
			<polygon points="21.1,47.9 22.2,47.9 22.2,45.8 21.1,45.7 			"/>
			<polygon points="28.1,49.5 29,48.2 29,45.1 28.1,45.5 			"/>
			<polygon points="26.3,47.9 27.3,47.9 27.3,45.7 26.3,45.8 			"/>
			<polygon points="17.7,46.4 18.6,47.9 18.6,44.7 17.7,44.3 			"/>
			<polygon points="29.8,47.9 30.7,46.4 30.7,44.3 29.8,44.7 			"/>
			<polygon points="19.4,48.2 20.4,49.5 20.4,45.5 19.4,45.1 			"/>
			<polygon points="22.8,48 23.9,48 23.9,45.9 22.8,45.8 			"/>
			<polygon points="24.6,48 25.6,48 25.6,45.8 24.6,45.9 			"/>
		</symbol>

		<symbol id='Wizard' viewBox="0 0 54.8 78.6">
			<title>Wizard</title>
			<polygon points="29.2,26 26.4,24.2 27.2,27.4 24.7,29.4 27.9,29.7 29.1,32.7 30.3,29.7 33.6,29.5 31.1,27.4 
				31.9,24.2 			"/>
			<polygon points="23.7,24.6 26.6,20.9 31.2,21.9 28.5,18 30.8,13.9 26.3,15.3 23.2,11.8 23.1,16.5 18.8,18.4 
				23.2,20 			"/>
			<path d="M26,47.2c-1.7-3.5-7.8-2.4-9-6.6c-1.6-5.6,3.8-8.7,2.8-13.1c-1.1-5-6.3-2.9-7.6-5.2
				c-3.3-5.6,4.1-12.3,4.1-12.3s-7.7,5.5-7.4,11.8c0.3,6,6.2,6.3,7.5,8.2c3,4.3-4,7.9-2.9,14.3c0.9,4.9,10.8,8.9,10.8,8.9
				S27.7,50.8,26,47.2z"/>
			<path d="M22,35.3c-0.3-3.6,1.5-5.2,1.5-5.2s-8.7,5.1,0.8,12.5c9.5,7.4,0,10.7,0,10.7s9.2-2.2,8.2-6.4
				C30.9,40.7,22.4,40.6,22,35.3z"/>
			<path d="M32.3,39.2c-3.2-2.7-8.1-0.9-8.7-6.8c-0.8,4.6,1.4,5.9,3.7,6.8c8.1,3,6.2,8.6,6.2,8.6
				S37.1,43.4,32.3,39.2z"/>
			<polygon points="39.6,19.9 37.1,19.8 36.2,17.4 35.2,19.8 32.7,19.9 34.7,21.5 34,24 36.2,22.6 38.3,24 
				37.7,21.5 			"/>
		</symbol>
	</defs>
</svg>
