<?xml version="1.0" encoding="utf-8"?>
<!-- Generator: Adobe Illustrator 16.0.0, SVG Export Plug-In . SVG Version: 6.00 Build 0)  -->
<!DOCTYPE svg PUBLIC "-//W3C//DTD SVG 1.1//EN" "http://www.w3.org/Graphics/SVG/1.1/DTD/svg11.dtd">
<svg version="1.1" id="Layer_1" xmlns="http://www.w3.org/2000/svg" xmlns:xlink="http://www.w3.org/1999/xlink" x="0px" y="0px"
	 width="100px" height="100px" viewBox="0 0 100 100" enable-background="new 0 0 100 100" xml:space="preserve">
<path fill-rule="evenodd" clip-rule="evenodd" fill="#ECA85F" d="M90.595,51.78c-2.157-11.849-7.867-21.687-16.96-29.562
	c-0.703-0.609-1.422-1.421-2.588-0.838c-1.209,0.605-1.106,1.632-1.031,2.717c0.145,2.076-0.077,4.108-0.921,6.434
	c-0.32-0.996-0.521-1.63-0.728-2.263C64.779,17.297,57.751,9.528,46.926,5.343c-3.164-1.223-4.007-0.539-3.762,2.779
	c0.257,3.472,0.152,6.925-0.57,10.346c-1.57,7.432-4.912,13.989-9.798,20.138c-1.608-3.266-3.256-6.206-5.436-8.809
	c-0.627-0.748-1.274-1.31-2.298-1.047c-1.075,0.276-1.367,1.153-1.314,2.104c0.315,5.619-2.273,10.134-5.309,14.548
	c-7.08,10.298-8.774,21.229-2.85,32.569c3.906,7.477,10.502,12.277,17.919,15.99c0.95,0.476,2.002,1.018,2.924,0.081
	c0.888-0.901,0.466-1.938-0.003-2.937c-1.284-2.729-2.386-5.521-3.09-8.468c-0.964-4.032-0.601-7.854,2.118-11.1
	c3.722-4.444,7.263-8.944,8.146-15.229c2.144,2.418,2.658,4.955,2.886,7.604c0.088,1.033-0.002,2.223,1.41,2.489
	c1.289,0.244,1.885-0.692,2.473-1.585c1.85-2.809,2.903-5.927,3.562-9.2c0.614-3.051,0.761-6.165,1.062-9.539
	c3.192,3.309,5.618,6.756,7.719,10.406c2.535,4.403,4.489,9.045,4.499,14.263c0.014,7.033-0.553,13.996-2.643,20.762
	c-0.271,0.88-0.584,1.774,0.226,2.521c0.78,0.721,1.68,0.516,2.542,0.155c10.401-4.347,18.299-11.233,22.158-22.108
	C91.854,65.44,91.841,58.623,90.595,51.78z M86.458,69.85c-2.531,9.201-8.961,15.242-17.525,19.763
	c0.867-4.786,1.4-9.241,1.782-13.725c0.729-8.556-1.528-16.232-6.206-23.321c-2.747-4.162-5.786-8.08-9.322-11.601
	c-0.832-0.828-1.609-1.995-3.049-1.358c-1.369,0.605-0.956,1.902-0.924,2.986c0.151,4.986,0.062,9.946-1.359,14.785
	c-0.124,0.421-0.315,0.821-0.572,1.479c-1.323-2.801-2.704-5.265-5.052-7.023c-2.072-1.553-3.398-1.128-3.705,1.453
	c-0.66,5.57-2.769,10.345-6.651,14.488c-4.693,5.008-5.587,10.986-3.518,17.463c0.313,0.982,0.591,1.977,0.909,3.05
	c-8.355-4.023-15.688-13.656-15.624-23.131c0.045-6.741,2.04-12.706,5.938-18.133c2.424-3.375,4.51-6.937,5.402-11.364
	c1.56,1.897,2.366,3.857,2.789,6.003c0.196,0.996-0.005,2.205,1.37,2.567c1.27,0.334,1.969-0.539,2.656-1.327
	c8.094-9.266,13.106-19.777,13.017-32.341c-0.003-0.358,0.03-0.716,0.053-1.22c2.007,0.438,3.548,1.509,5.095,2.533
	c8.223,5.445,12.725,13.204,14.259,22.846c0.205,1.291-0.264,3.167,1.658,3.558c2.007,0.408,2.411-1.483,3.095-2.72
	c1.396-2.524,2.142-5.289,2.604-8.508c2.653,2.361,4.665,4.956,6.42,7.708C86.887,45.567,89.938,57.204,86.458,69.85z"/>
</svg>
