<?xml version="1.0" encoding="utf-8"?>
<!-- Generator: Adobe Illustrator 16.0.0, SVG Export Plug-In . SVG Version: 6.00 Build 0)  -->
<!DOCTYPE svg PUBLIC "-//W3C//DTD SVG 1.1//EN" "http://www.w3.org/Graphics/SVG/1.1/DTD/svg11.dtd">
<svg version="1.1" id="Layer_1" xmlns="http://www.w3.org/2000/svg" xmlns:xlink="http://www.w3.org/1999/xlink" x="0px" y="0px"
	 width="100px" height="100px" viewBox="0 0 100 100" enable-background="new 0 0 100 100" xml:space="preserve">
<path fill-rule="evenodd" clip-rule="evenodd" fill="#C1D693" d="M88.015,88.841c-1.41-1.245-2.607-2.734-4.04-3.95
	c-1.315-1.116-1.566-2.175-1.007-3.86c2.801-8.443,3.504-17.105,1.945-25.868c-2.112-11.877-7.978-21.702-17.092-29.493
	c-15.295-13.073-32.633-15.34-51.438-9.287c-1.565,0.504-2.44,1.414-2.978,3.002c-2.025,5.976-3.116,12.087-3.137,18.413
	c0.291,17.4,7.674,31.201,21.629,41.373c13.672,9.966,28.86,11.729,44.916,7.138c2.03-0.58,3.476-0.625,4.861,1.192
	c1.086,1.425,2.595,2.521,3.776,3.882c0.972,1.119,1.47,0.462,2.086-0.286C88.093,90.422,89.328,89.999,88.015,88.841z
	 M82.09,66.201c-0.343,4.728-1.001,9.344-2.659,14.324c-4.165-4.246-8.052-8.218-11.954-12.176c-0.688-0.698-0.47-1.551-0.469-2.349
	c0.005-6.408,0.021-12.816,0.079-19.225c0.012-1.268-0.013-2.117-1.744-2.042c-1.509,0.065-1.89,0.53-1.869,1.986
	c0.08,5.651,0.033,11.305,0.033,16.925c-0.821,0.328-1.018-0.344-1.335-0.657c-3.22-3.177-6.379-6.416-9.628-9.561
	c-0.945-0.915-1.307-1.847-1.281-3.158c0.124-6.331,0.144-12.665,0.216-18.997c0.014-1.18,0.145-2.139-1.667-2.153
	c-1.778-0.013-1.886,0.741-1.876,2.146c0.035,4.824-0.037,9.649-0.084,14.474c-0.007,0.737,0.168,1.506-0.464,2.612
	c-4.557-4.599-8.949-9.035-13.344-13.47c-1.539-1.553-3.064-3.12-4.641-4.634c-0.386-0.37-0.7-1.286-1.368-0.841
	c-0.79,0.526-1.539,1.269-1.99,2.092c-0.286,0.519,0.574,0.939,0.979,1.346c5.368,5.394,10.74,10.784,16.137,16.149
	c0.52,0.518,1.207,0.867,1.764,1.258c-0.754,1.066-1.412,0.775-1.955,0.775c-4.75,0.004-9.5-0.08-14.248-0.017
	c-1.16,0.015-2.902-0.937-2.949,1.711c-0.047,2.582,1.589,1.802,2.812,1.814c6.106,0.061,12.214,0.089,18.32,0.047
	c1.311-0.01,2.25,0.382,3.171,1.31c3.479,3.502,7.034,6.928,10.985,10.8c-6.406,0-12.104,0.056-17.798-0.037
	c-1.537-0.024-1.909,0.461-1.894,1.926c0.016,1.359,0.517,1.602,1.735,1.602c6.56,0.003,13.117,0.087,19.677,0.145
	c0.813,0.007,1.604-0.099,2.303,0.598c3.834,3.821,7.71,7.6,11.857,11.673c-5.898,1.941-11.52,2.664-17.246,2.545
	c-23.551-0.489-39.74-18.909-43.978-33.852c-2.871-10.126-2.344-20.08,0.77-30.018c0.335-1.069,1.029-1.587,1.998-1.907
	C54.688,7.402,84.192,37.229,82.09,66.201z"/>
</svg>
