<?xml version="1.0" encoding="utf-8"?>
<!-- Generator: Adobe Illustrator 16.0.0, SVG Export Plug-In . SVG Version: 6.00 Build 0)  -->
<!DOCTYPE svg PUBLIC "-//W3C//DTD SVG 1.1//EN" "http://www.w3.org/Graphics/SVG/1.1/DTD/svg11.dtd">
<svg version="1.1" id="Layer_1" xmlns="http://www.w3.org/2000/svg" xmlns:xlink="http://www.w3.org/1999/xlink" x="0px" y="0px"
	 width="100px" height="100px" viewBox="0 0 100 100" enable-background="new 0 0 100 100" xml:space="preserve">
<path fill-rule="evenodd" clip-rule="evenodd" fill="#C24B4D" d="M91.786,89.322c-4.047-4.055-8.047-8.158-12.178-12.125
	c-1.516-1.455-1.707-2.434-0.052-3.952c2.996-2.748,5.661-5.862,8.711-8.543c2.478-2.177,3.949-4.487,2.97-7.64
	c0-1.344-0.009-2.474,0.002-3.604c0.013-1.281,0.034-2.346-1.871-2.263c-1.93,0.084-1.706,1.249-1.682,2.455
	c0.036,1.733,0.076,3.468,0.128,5.201c0.051,1.716-1.216,2.634-2.405,3.283c-1.036,0.565-1.635-0.747-2.287-1.388
	c-2.899-2.851-5.76-5.74-8.633-8.617C60.498,38.119,46.504,24.108,32.52,10.089c-0.877-0.879-1.799-1.454-3.112-1.595
	C23.041,7.81,16.657,7.208,10.34,6.2c-4.132-0.658-4.477,0.725-4.054,4.094c0.786,6.272,1.529,12.552,2.225,18.836
	c0.15,1.367,0.72,2.407,1.661,3.347c16.891,16.87,33.773,33.749,50.658,50.624c1.844,1.842,1.629,3.321-0.729,4.452
	c-0.508,0.244-1.164,0.242-1.752,0.242c-1.734,0-3.47-0.014-5.201-0.104c-1.226-0.063-1.759,0.359-1.798,1.65
	c-0.038,1.255,0.397,1.813,1.646,1.839c2.186,0.044,4.375,0.076,6.555,0.229c1.405,0.098,2.386-0.397,3.362-1.401
	c3.521-3.619,7.182-7.104,10.689-10.735c1.176-1.217,1.832-1.477,3.172-0.062c4.091,4.316,8.387,8.438,12.588,12.651
	c0.898,0.9,1.615,1.712,2.938,0.383C93.692,90.845,92.626,90.163,91.786,89.322z M76.663,71.236
	c-1.069,1.228-1.781,1.142-2.88,0.033c-6.734-6.797-13.54-13.522-20.297-20.296c-9.523-9.547-19.004-19.137-28.581-28.629
	c-0.818-0.812-1.537-3.056-3.524-1.111c-1.115,1.092-0.916,1.715,0.087,2.713c10.31,10.251,20.58,20.542,30.855,30.827
	c6.278,6.284,12.522,12.604,18.843,18.846c1.165,1.151,1.348,1.923,0.041,3.082c-1.632,1.446-3.149,3.034-4.612,4.655
	c-0.973,1.078-1.63,0.877-2.565-0.062c-6.324-6.356-12.711-12.649-19.046-18.995C34.655,51.955,24.396,41.542,13.991,31.276
	c-1.563-1.542-2.038-3.232-2.265-5.173c-0.567-4.863-1.046-9.736-1.679-14.591c-0.191-1.475,0.331-1.768,1.496-1.515
	c5.475,0.632,10.86,1.261,16.248,1.871c1.178,0.133,2.101,0.649,2.941,1.492c16.751,16.801,33.505,33.598,50.312,50.342
	c1.299,1.292,1.264,2.108-0.032,3.256C79.491,68.307,77.996,69.706,76.663,71.236z"/>
</svg>
