<?xml version="1.0" encoding="utf-8"?>
<!-- Generator: Adobe Illustrator 16.0.0, SVG Export Plug-In . SVG Version: 6.00 Build 0)  -->
<!DOCTYPE svg PUBLIC "-//W3C//DTD SVG 1.1//EN" "http://www.w3.org/Graphics/SVG/1.1/DTD/svg11.dtd">
<svg version="1.1" id="Layer_1" xmlns="http://www.w3.org/2000/svg" xmlns:xlink="http://www.w3.org/1999/xlink" x="0px" y="0px"
	 width="100px" height="100px" viewBox="0 0 100 100" enable-background="new 0 0 100 100" xml:space="preserve">
<path fill-rule="evenodd" clip-rule="evenodd" fill="#C1D693" d="M50.17,9.803C28.096,9.718,9.787,27.87,9.683,49.941
	C9.577,72.362,27.605,90.688,49.91,90.833C72.209,90.979,90.551,72.94,90.647,50.77C90.747,27.944,72.908,9.89,50.17,9.803z
	 M24.008,76.346c-10.049-10.718-13.444-23.292-8.905-37.312c4.588-14.169,14.759-22.496,29.378-25.299
	c7.204-1.382,13.469,1.018,18.79,5.622c8.043,6.959,6.56,18.622-2.782,24.393c-5.114,3.159-10.893,4.685-16.373,6.945
	c-2.509,1.034-4.925,2.243-7.169,3.782c-9.234,6.332-11.064,18.224-4.163,27.107c0.392,0.505,0.781,1.012,1.575,2.042
	C30.036,81.67,26.772,79.294,24.008,76.346z M51.64,87.298c-11.732,0.43-21.493-10.592-19.033-21.46
	c0.896-3.957,3.488-6.578,6.717-8.695c4.196-2.752,8.954-4.25,13.612-5.957c4.117-1.51,8.084-3.304,11.59-5.983
	c8.529-6.519,9.974-17.447,3.465-25.993c-0.335-0.441-0.934-0.751-0.858-1.67c3.14,1.375,5.712,3.387,8.128,5.598
	c10.897,9.972,14.796,25.97,9.728,39.759C79.801,77.006,66.48,86.753,51.64,87.298z"/>
</svg>
