<?xml version="1.0" encoding="utf-8"?>
<!-- Generator: Adobe Illustrator 16.0.0, SVG Export Plug-In . SVG Version: 6.00 Build 0)  -->
<!DOCTYPE svg PUBLIC "-//W3C//DTD SVG 1.1//EN" "http://www.w3.org/Graphics/SVG/1.1/DTD/svg11.dtd">
<svg version="1.1" id="Layer_1" xmlns="http://www.w3.org/2000/svg" xmlns:xlink="http://www.w3.org/1999/xlink" x="0px" y="0px"
	 width="100px" height="100px" viewBox="0 0 100 100" enable-background="new 0 0 100 100" xml:space="preserve">
<path fill="#FF7BAC" d="M60.152,38.258L54.41,34.57l1.641,6.555l-5.129,4.098l6.566,0.613l2.461,6.145l2.461-6.145l6.77-0.41
	l-5.129-4.301l1.641-6.555L60.152,38.258z"/>
<path fill="#FF7BAC" d="M48.871,35.391l5.949-7.582l9.434,2.051l-5.535-7.988l4.715-8.398l-9.23,2.867l-6.355-7.168l-0.207,9.625
	l-8.82,3.895l9.027,3.277L48.871,35.391z"/>
<path fill="#FF7BAC" d="M53.59,81.684c-3.488-7.172-16-4.918-18.461-13.52c-3.281-11.473,7.793-17.82,5.742-26.836
	c-2.254-10.242-12.922-5.938-15.59-10.648c-6.766-11.473,8.41-25.195,8.41-25.195S17.898,16.75,18.516,29.652
	c0.613,12.293,12.715,12.906,15.383,16.797c6.152,8.809-8.207,16.184-5.949,29.293c1.848,10.035,22.152,18.23,22.152,18.23
	S57.078,89.055,53.59,81.684z"/>
<path fill="#FF7BAC" d="M45.387,57.305c-0.617-7.371,3.074-10.648,3.074-10.648s-17.844,10.445,1.641,25.602
	c19.488,15.16,0,21.918,0,21.918s18.871-4.504,16.82-13.109C63.641,68.367,46.207,68.164,45.387,57.305z"/>
<path fill="#FF7BAC" d="M66.512,65.297c-6.562-5.531-16.613-1.844-17.844-13.93c-1.641,9.422,2.871,12.086,7.59,13.93
	C72.871,71.441,68.973,82.91,68.973,82.91S76.359,73.898,66.512,65.297z"/>
<path fill="#FF7BAC" d="M81.484,25.762l-5.125-0.203l-1.848-4.918l-2.051,4.918l-5.129,0.203l4.102,3.277L70,34.16l4.512-2.867
	l4.309,2.867l-1.23-5.121L81.484,25.762z"/>
</svg>
