<?xml version="1.0" encoding="utf-8"?>
<!-- Generator: Adobe Illustrator 16.0.0, SVG Export Plug-In . SVG Version: 6.00 Build 0)  -->
<!DOCTYPE svg PUBLIC "-//W3C//DTD SVG 1.1//EN" "http://www.w3.org/Graphics/SVG/1.1/DTD/svg11.dtd">
<svg version="1.1" id="Layer_1" xmlns="http://www.w3.org/2000/svg" xmlns:xlink="http://www.w3.org/1999/xlink" x="0px" y="0px"
	 width="100px" height="100px" viewBox="0 0 100 100" enable-background="new 0 0 100 100" xml:space="preserve">
<path fill-rule="evenodd" clip-rule="evenodd" fill="#CD9BCD" d="M86.206,22.873c-0.232-1.063-0.53-1.961-1.778-2.331
	C73.52,17.31,63.093,12.784,52.545,8.587c-1.341-0.534-2.499-0.556-3.872-0.015c-10.558,4.165-20.966,8.742-31.888,11.928
	c-1.25,0.365-1.558,1.217-1.8,2.302c-2.139,9.562-2.201,19.137-0.018,28.68c4.336,18.949,16.321,31.396,33.608,39.31
	c1.633,0.747,3.029,0.441,4.519-0.257C75.68,79.935,87.4,62.293,87.712,37.249C87.743,32.384,87.242,27.602,86.206,22.873z
	 M48.747,86.831c-4.775-2.125-8.959-4.714-12.825-7.835c-9.463-7.639-15.294-17.464-17.751-29.349
	c-0.265-1.28-0.32-1.871,1.327-1.859c9.201,0.069,18.402,0.037,27.604,0.005c1.072-0.003,1.669,0.173,1.665,1.461
	C48.732,61.685,48.747,74.115,48.747,86.831z M47.004,44.305c-9.347-0.042-18.693-0.042-28.04,0.015
	c-1.279,0.008-1.687-0.464-1.794-1.643c-0.543-5.971-0.104-11.878,0.959-17.763c0.165-0.907,0.635-1.242,1.394-1.487
	c9.313-3,18.382-6.653,27.431-10.354c1.314-0.537,1.857-0.492,1.827,1.167c-0.085,4.747-0.029,9.496-0.028,14.246
	c0.001,4.673-0.054,9.347,0.034,14.019C48.812,43.912,48.37,44.311,47.004,44.305z M82.91,50.095
	c-3.113,14.02-10.715,24.888-22.835,32.575c-1.968,1.249-4.072,2.28-6.077,3.473c-1.397,0.832-1.757,0.444-1.741-1.095
	c0.059-5.958,0.024-11.916,0.024-17.874c0.002-5.731,0.051-11.464-0.03-17.194c-0.022-1.582,0.241-2.233,2.068-2.21
	c8.898,0.109,17.799,0.111,26.696,0.009C82.962,47.755,83.292,48.376,82.91,50.095z M83.963,42.686
	c-0.095,1.285-0.544,1.632-1.774,1.627c-9.35-0.039-18.701-0.022-28.052-0.012c-1.058,0.001-1.878-0.028-1.871-1.514
	c0.048-10.017,0.025-20.034,0.025-30.374c4.552,1.782,8.854,3.517,13.193,5.152c5.204,1.961,10.424,3.882,15.672,5.718
	c1.214,0.424,1.754,0.956,1.98,2.287C84.103,31.251,84.389,36.94,83.963,42.686z"/>
</svg>
