<?xml version="1.0" encoding="utf-8"?>
<!-- Generator: Adobe Illustrator 16.0.0, SVG Export Plug-In . SVG Version: 6.00 Build 0)  -->
<!DOCTYPE svg PUBLIC "-//W3C//DTD SVG 1.1//EN" "http://www.w3.org/Graphics/SVG/1.1/DTD/svg11.dtd">
<svg version="1.1" id="Layer_1" xmlns="http://www.w3.org/2000/svg" xmlns:xlink="http://www.w3.org/1999/xlink" x="0px" y="0px"
	 width="100px" height="100px" viewBox="0 0 100 100" enable-background="new 0 0 100 100" xml:space="preserve">
<path fill-rule="evenodd" clip-rule="evenodd" fill="#D6B173" d="M80.339,20.018c-2.21-5.303-5.775-9.329-10.928-11.833
	C59.91,3.568,49.957,3.268,39.873,5.631c-9.14,2.143-15.547,7.478-18.698,16.568c-4.496,12.972-5.616,26.173-2.781,39.597
	c2.899,13.727,10.424,24.181,22.911,30.832c6.021,3.206,12.279,3.524,18.47,0.624c7.166-3.356,13.045-8.351,17.436-14.969
	c6.218-9.371,8.165-19.924,8.354-30.742C85.404,37.932,83.985,28.771,80.339,20.018z M21.706,33.396
	c0.903-3.89,1.962-7.711,3.39-11.443c2.059-5.381,5.768-9.192,11.057-11.287c9.783-3.875,19.69-3.928,29.552-0.252
	c5.677,2.116,9.58,6.101,11.728,11.794c1.356,3.598,2.408,7.277,3.27,11.024c0.443,1.929,0.157,2.664-2.115,2.629
	c-9.123-0.141-18.249-0.058-27.374-0.061c-9.2-0.003-18.4-0.059-27.6,0.039C21.566,35.861,21.264,35.301,21.706,33.396z
	 M78.339,68.384c-3.817,9.859-10.597,17.055-20.061,21.661c-4.576,2.227-9.386,2.267-13.974,0.066
	C33.398,84.88,26.291,76.358,22.642,64.136c4.816,3.477,9.604,5.484,15.081,5.516c3.763,0.021,7.302-0.896,10.628-2.609
	c1.798-0.926,3.526-1.08,5.376-0.147c8.522,4.298,16.702,3.505,24.561-1.735c0.291-0.194,0.621-0.329,1.021-0.538
	C79.533,66.12,78.779,67.244,78.339,68.384z M80.369,58.784c-6.486,6.558-15.448,9.848-24.859,5.034
	c-2.813-1.438-5.626-1.509-8.442-0.048c-9.327,4.839-18.457,1.638-24.896-4.879c-0.674-0.682-1.019-1.401-1.157-2.351
	c-0.732-5.024-0.632-10.063-0.45-15.114c0.057-1.603,0.607-2.168,2.3-2.123c4.745,0.128,9.496,0.046,14.244,0.046
	c4.748,0.001,9.497,0,14.245,0.004c9.422,0.003,18.844,0.035,28.265-0.03c1.511-0.011,2.018,0.346,2.16,1.946
	c0.463,5.211,0.298,10.376-0.46,15.541C81.205,57.603,80.927,58.221,80.369,58.784z"/>
<path fill-rule="evenodd" clip-rule="evenodd" fill="#D5B173" d="M47.713,49.938c-5.393-4.505-11.865-5.866-18.596-6.499
	c-1.194-0.112-1.725,0.664-2.015,1.713c-1.902,6.888,4.214,14.797,11.362,14.684c4.313-0.07,7.607-1.907,9.916-5.587
	C49.447,52.55,49.268,51.236,47.713,49.938z M44.104,54.017c-1.664,1.665-3.695,2.209-6.167,2.357
	c-3.628-0.001-7.805-4.548-7.417-8.316c0.063-0.608,0.158-0.972,0.935-0.843c4.395,0.729,8.673,1.738,12.48,4.24
	C45.294,52.348,45.136,52.983,44.104,54.017z"/>
<path fill-rule="evenodd" clip-rule="evenodd" fill="#D4B173" d="M72.731,43.476c-5.199,0.458-10.256,1.563-14.835,4.189
	c-5.899,3.382-5.828,7.094,0.13,10.604c0.323,0.19,0.659,0.359,1,0.515c8.133,3.698,16.302-2.031,16.384-11.489
	C75.438,44.098,74.937,43.28,72.731,43.476z M63.836,56.327c-0.564-0.078-1.336-0.087-2.046-0.3c-1.844-0.551-3.989-1.45-4.234-3.27
	c-0.195-1.447,2.095-2.022,3.453-2.705c2.971-1.493,6.172-2.261,9.449-2.731c0.651-0.093,1.314-0.435,1.406,0.743
	C72.175,52.066,68.048,56.458,63.836,56.327z"/>
</svg>
