<?xml version="1.0" encoding="utf-8"?>
<!-- Generator: Adobe Illustrator 16.0.0, SVG Export Plug-In . SVG Version: 6.00 Build 0)  -->
<!DOCTYPE svg PUBLIC "-//W3C//DTD SVG 1.1//EN" "http://www.w3.org/Graphics/SVG/1.1/DTD/svg11.dtd">
<svg version="1.1" id="Layer_1" xmlns="http://www.w3.org/2000/svg" xmlns:xlink="http://www.w3.org/1999/xlink" x="0px" y="0px"
	 width="100px" height="100px" viewBox="0 0 100 100" enable-background="new 0 0 100 100" xml:space="preserve">
<path fill-rule="evenodd" clip-rule="evenodd" fill="#D5B273" d="M95.935,48.037c-5.688-2.58-11.358-5.204-17.097-7.669
	c-1.597-0.685-1.971-1.312-1.3-2.989c2.319-5.795,4.469-11.657,6.678-17.496c0.238-0.631,0.439-1.276,0.588-1.712
	c0.079-1.897-1.051-2.562-2.951-1.851c-6.201,2.321-12.414,4.614-18.56,7.073c-1.588,0.636-2.113,0.25-2.735-1.184
	c-2.545-5.867-5.214-11.682-7.833-17.518c-0.46-1.027-0.785-2.236-2.224-2.198c-1.312,0.035-1.61,1.166-2.042,2.125
	c-2.594,5.765-5.246,11.504-7.756,17.304c-0.699,1.615-1.298,2.1-3.121,1.358c-5.925-2.411-11.941-4.595-17.933-6.838
	c-0.885-0.332-1.835-0.929-2.751-0.077c-0.967,0.898-0.551,1.917-0.171,2.919c2.268,5.984,4.448,12.003,6.847,17.934
	c0.759,1.875,0.297,2.521-1.441,3.261c-5.68,2.413-11.282,5.007-16.899,7.565c-1.039,0.474-2.443,0.648-2.391,2.3
	c0.051,1.618,1.453,1.754,2.493,2.229c5.748,2.626,11.489,5.271,17.289,7.781c1.479,0.641,1.606,1.287,1.057,2.688
	c-2.365,6.024-4.608,12.098-6.91,18.147c-0.382,1.004-0.845,2.019,0.038,2.95c0.942,0.996,1.99,0.337,2.939-0.019
	c6.062-2.269,12.133-4.517,18.145-6.914c1.522-0.606,2.033-0.221,2.635,1.154c2.621,5.998,5.362,11.944,8.051,17.913
	c0.411,0.914,0.823,1.875,2.006,1.858c1.16-0.018,1.58-0.941,1.994-1.872c2.632-5.913,5.336-11.794,7.907-17.732
	c0.643-1.482,1.216-1.953,2.877-1.287c5.865,2.353,11.798,4.537,17.713,6.766c1.093,0.411,2.269,1.21,3.326,0.022
	c0.928-1.043,0.248-2.155-0.14-3.187c-2.223-5.913-4.418-11.838-6.754-17.707c-0.624-1.567-0.315-2.197,1.203-2.854
	c5.801-2.509,11.542-5.153,17.299-7.761c1.009-0.457,2.289-0.75,2.331-2.157C98.389,48.81,97.005,48.522,95.935,48.037z
	 M84.27,53.924c-3.151,1.431-6.279,2.921-9.475,4.245c-1.866,0.772-2.293,1.8-1.55,3.688c2.173,5.523,4.215,11.1,6.305,16.656
	c0.1,0.266,0.166,0.544,0.374,1.236c-2.934-1.106-5.556-2.092-8.177-3.083c-3.167-1.198-6.383-2.286-9.48-3.643
	c-2.172-0.951-3.128-0.151-3.965,1.774c-2.458,5.656-5.031,11.261-7.718,17.237c-2.264-5.002-4.394-9.709-6.524-14.416
	c-2.877-6.354-1.833-5.778-8.213-3.389c-4.72,1.768-9.432,3.558-14.145,5.336c-0.583-0.628-0.088-1.136,0.109-1.66
	c2.013-5.353,3.973-10.727,6.072-16.045c0.746-1.893,0.292-2.915-1.54-3.708c-4.9-2.123-9.754-4.355-14.622-6.554
	c-0.796-0.359-1.568-0.77-2.743-1.348c4.847-2.194,9.334-4.226,13.821-6.258c1.233-0.559,2.442-1.184,3.706-1.661
	c1.853-0.698,2.049-1.842,1.374-3.57c-2.104-5.397-4.103-10.836-6.149-16.256c-0.156-0.416-0.43-0.798-0.149-1.518
	c4.806,1.81,9.617,3.616,14.426,5.432c6.369,2.406,5.169,2.812,8.022-3.356c2.177-4.703,4.261-9.449,6.543-14.527
	c2.673,5.947,5.192,11.537,7.695,17.136c1.163,2.601,1.502,2.771,4.066,1.806c5.747-2.164,11.491-4.337,17.718-6.688
	c-2.383,6.315-4.501,12.1-6.761,17.827c-0.773,1.962-0.393,3.017,1.589,3.859c4.914,2.091,9.756,4.354,14.621,6.557
	c0.732,0.331,1.439,0.716,2.604,1.299C89.244,51.646,86.761,52.793,84.27,53.924z"/>
</svg>
