<?xml version="1.0" encoding="utf-8"?>
<!-- Generator: Adobe Illustrator 16.0.0, SVG Export Plug-In . SVG Version: 6.00 Build 0)  -->
<!DOCTYPE svg PUBLIC "-//W3C//DTD SVG 1.1//EN" "http://www.w3.org/Graphics/SVG/1.1/DTD/svg11.dtd">
<svg version="1.1" id="Layer_1" xmlns="http://www.w3.org/2000/svg" xmlns:xlink="http://www.w3.org/1999/xlink" x="0px" y="0px"
	 width="100px" height="100px" viewBox="0 0 100 100" enable-background="new 0 0 100 100" xml:space="preserve">
<path fill-rule="evenodd" clip-rule="evenodd" fill="#65B0C1" d="M97.769,87.929c-8.627-15.093-17.261-30.182-25.904-45.265
	C65.54,31.628,59.213,20.594,52.856,9.575c-1.434-2.483-2.781-2.45-4.229,0.03c-1.29,2.21-2.529,4.448-3.802,6.668
	C31.092,40.239,17.351,64.201,3.625,88.172c-1.727,3.015-1.122,3.903,2.407,3.904C20.955,92.08,35.878,92,50.801,92
	c4.597,0,9.194,0,13.792,0c10.476,0,20.952,0.076,31.428,0.09c1.449,0.002,2.9-0.013,2.767-1.97
	C98.734,89.355,98.176,88.642,97.769,87.929z M7.58,88c14.373-25,28.669-50.007,43.121-75.215C53.653,17.287,92.86,86,93.632,88
	C65.051,88,36.54,88,7.58,88z"/>
<path fill-rule="evenodd" clip-rule="evenodd" fill="#64AFC0" d="M72.497,58.767c-5.08-5.035-11.607-7.145-18.62-7.602
	c-10.014-0.653-19.241,1.365-26.324,9.104c-4.154,4.54-3.76,4.299-0.096,8.479c6.145,7.01,14.392,9.159,23.066,9.372
	c8.421-0.16,16.059-1.959,22.027-7.83C78.409,64.529,78.283,64.501,72.497,58.767z M41.064,55.924
	c1.18-0.231,2.325-0.658,3.51-0.826c2.009-0.285,4.019-0.659,5.517-0.519c3.879,0.013,7.144,0.425,10.357,1.334
	c1.261,0.356,1.736,0.786,1.287,2.198c-1.485,4.663-5.958,8.051-10.869,8.066c-5.03,0.015-9.648-3.406-11.098-8.092
	C39.347,56.722,39.784,56.176,41.064,55.924z M67.938,69.482c-5.001,3.92-11.01,5.013-17.651,5.049
	c-7.151-0.102-14.054-1.946-19.601-7.441c-2.434-2.41-2.429-2.673,0.078-5.131c0.43-0.422,0.868-0.838,1.329-1.226
	c1.097-0.923,2.258-2.335,3.539-2.248c1.342,0.091,1.177,2.109,1.819,3.211c3.124,5.352,7.698,8.186,13.936,7.929
	c6.454-0.266,10.942-3.593,13.294-9.522c0.808-2.036,1.562-1.938,2.916-0.819C74.289,64.814,74.323,64.477,67.938,69.482z"/>
</svg>
