<?xml version="1.0" encoding="utf-8"?>
<!-- Generator: Adobe Illustrator 16.0.0, SVG Export Plug-In . SVG Version: 6.00 Build 0)  -->
<!DOCTYPE svg PUBLIC "-//W3C//DTD SVG 1.1//EN" "http://www.w3.org/Graphics/SVG/1.1/DTD/svg11.dtd">
<svg version="1.1" id="Layer_1" xmlns="http://www.w3.org/2000/svg" xmlns:xlink="http://www.w3.org/1999/xlink" x="0px" y="0px"
	 width="100px" height="100px" viewBox="0 0 100 100" enable-background="new 0 0 100 100" xml:space="preserve">
<path fill-rule="evenodd" clip-rule="evenodd" fill="#BAC9CC" d="M93.606,75.127c-1.5-1.853-3.475-3.089-5.571-4.146
	c-4.817-2.43-9.99-3.786-15.259-4.677c-1.708-0.289-2.189-1.103-2.614-2.476C64.411,45.231,58.633,26.644,52.854,8.055
	c-0.356-1.149-0.635-2.5-2.217-2.424c-1.43,0.069-1.604,1.337-1.941,2.424c-5.81,18.663-11.653,37.315-17.414,55.993
	c-0.442,1.437-1.058,1.98-2.544,2.242c-2.956,0.52-5.88,1.288-8.766,2.129c-3.772,1.099-7.388,2.606-10.48,5.109
	C5.1,77.084,5.048,81.961,9.327,85.666c2.076,1.797,4.495,3.012,7.035,3.99c11.079,4.268,22.701,5.071,34.78,5.438
	c2.862-0.14,6.105-0.227,9.336-0.471c8.355-0.631,16.607-1.837,24.479-4.884c3.246-1.257,6.373-2.764,8.643-5.551
	C96.001,81.241,95.995,78.079,93.606,75.127z M31.114,76.275c6.422-20.347,12.734-40.727,19.076-61.099
	c0.13-0.42,0.123-0.918,0.789-1.17c2.692,8.663,5.379,17.314,8.07,25.965c3.706,11.908,7.364,23.832,11.175,35.707
	c0.605,1.887,0.133,2.417-1.601,2.92c-12.043,3.497-24.05,3.455-36.061-0.116C31.433,78.146,30.561,78.028,31.114,76.275z
	 M88.767,83.818c-4.124,2.783-8.827,4.159-13.639,5.145c-17.757,3.636-35.451,3.539-53.036-1.088
	c-3.354-0.882-6.603-2.116-9.479-4.12c-3.853-2.685-3.875-5.521,0.007-8.137c4.97-3.349,10.692-4.63,16.83-5.921
	c-0.882,2.921-1.577,5.53-2.47,8.07c-0.596,1.694-0.021,2.559,1.532,3.103c9.378,3.282,18.99,4.536,28.898,3.508
	c5.114-0.531,10.096-1.585,14.939-3.3c2.616-0.927,2.747-1.176,1.938-3.962c-0.684-2.356-1.396-4.705-2.194-7.384
	c6.152,1.26,11.938,2.513,16.902,5.992C92.897,78.458,92.802,81.095,88.767,83.818z"/>
</svg>
